<?xml version="1.0" encoding="UTF-8" standalone="no"?>
<svg xmlns="http://www.w3.org/2000/svg" fill="none" height="213" viewBox="0 0 212 213" width="212">
  
  <path d="M61.7175 67.2178C62.1493 67.2466 62.5235 66.9875 63.5022 66.0088C64.4522 65.0589 64.5961 64.6559 64.3082 63.9938C64.0779 63.5332 63.8477 63.2165 62.6674 62.0651C61.1417 60.5394 60.9115 60.3667 60.3069 60.3379C59.8751 60.3091 59.5297 60.5394 58.6373 61.4606C57.8313 62.2666 57.6298 62.5832 57.6298 63.015C57.601 63.5908 57.8313 63.9074 59.5873 65.6922C60.7963 66.9012 61.1993 67.1603 61.7175 67.2178Z" fill="black"/>
  
  <path d="M22.2778 102.481C20.7521 100.956 20.5218 100.783 19.9461 100.754C19.5143 100.725 19.1689 100.956 18.2765 101.877C17.4705 102.683 17.269 102.999 17.2402 103.431C17.2114 104.007 17.4417 104.324 19.1977 106.108C20.4067 107.317 20.8097 107.605 21.3278 107.634C21.7596 107.663 22.1339 107.404 23.1126 106.425C24.0625 105.475 24.2065 105.072 23.9186 104.41C23.6883 103.949 23.4292 103.633 22.2778 102.481Z" fill="black"/>
  
  <path d="M53.3648 75.5951C53.7966 75.6239 54.1708 75.3648 55.1496 74.3861C56.0995 73.4361 56.2435 73.0331 55.9556 72.371C55.7253 71.9104 55.495 71.5938 54.3148 70.4423C52.7891 68.9167 52.5588 68.7439 51.9543 68.7152C51.5225 68.6864 51.1771 68.9167 50.2847 69.8378C49.4787 70.6438 49.2772 70.9605 49.2772 71.3923C49.2484 71.968 49.4787 72.2847 51.2346 74.0694C52.4437 75.2784 52.8179 75.5375 53.3648 75.5951Z" fill="black"/>
  
  <path d="M28.3152 118.314C27.538 119.091 27.3653 119.436 27.5668 119.897C27.6819 120.156 27.7395 120.242 28.2288 120.732L29.7545 122.286L32.2014 119.839L30.7333 118.371C29.6394 117.277 29.3515 117.277 28.3152 118.314Z" fill="black"/>
  
  <path d="M46.8988 82.5035C47.5033 81.899 47.676 81.4672 47.5609 80.9491C47.4457 80.4309 47.0715 79.9416 45.92 78.7613C44.8262 77.6674 44.3368 77.2932 43.8762 77.2069C43.4156 77.0917 42.9838 77.2932 42.4081 77.8977L40.5082 79.7976L45.0564 84.3459L46.8988 82.5035Z" fill="black"/>
  
  <path d="M39.2073 123.524C38.7467 123.754 38.4589 123.985 37.2787 125.165C35.753 126.691 35.609 126.921 35.5515 127.497C35.5227 127.928 35.753 128.274 36.6741 129.195C37.4802 130.001 37.7968 130.203 38.2286 130.203C38.8043 130.231 39.121 130.001 40.9057 128.245C42.1148 127.036 42.4026 126.633 42.4314 126.115C42.4602 125.683 42.2011 125.309 41.2224 124.33C40.3012 123.38 39.8694 123.236 39.2073 123.524Z" fill="black"/>
  
  <path d="M79.0951 169.295C78.174 170.216 78.174 170.532 79.0088 171.396L80.8223 173.21L83.154 170.878L81.3405 169.064C80.5057 168.23 80.1027 168.287 79.0951 169.295Z" fill="black"/>
  
  <path d="M51.5596 135.873C51.099 136.075 50.8111 136.334 49.6309 137.485C48.1052 139.011 47.9613 139.241 47.9037 139.846C47.8749 140.278 48.1052 140.623 49.0264 141.544C49.8324 142.35 50.149 142.552 50.5808 142.552C51.1565 142.58 51.4732 142.35 53.2579 140.594C54.467 139.385 54.7548 138.982 54.7836 138.464C54.8124 138.032 54.5533 137.658 53.5746 136.679C52.6246 135.729 52.2216 135.557 51.5596 135.873Z" fill="black"/>
  
  <path d="M104.632 24.2978C105.064 24.3266 105.438 24.0676 106.417 23.0888C107.367 22.1389 107.511 21.7359 107.223 21.0738C106.993 20.6132 106.762 20.2965 105.582 19.1451C104.056 17.6194 103.826 17.4467 103.222 17.4179C102.79 17.3891 102.444 17.6194 101.552 18.5406C100.775 19.3466 100.573 19.6632 100.544 20.095C100.516 20.6708 100.746 20.9874 102.502 22.7722C103.711 23.9812 104.114 24.2403 104.632 24.2978Z" fill="black"/>
  
  <path d="M160.419 76.631C160.88 76.4007 161.167 76.1704 162.348 74.9902C163.873 73.4645 164.017 73.2343 164.075 72.6585C164.104 72.2267 163.873 71.8813 162.952 70.9601C162.146 70.1541 161.829 69.9526 161.398 69.9526C160.822 69.9238 160.505 70.1541 158.721 71.9101C157.512 73.1191 157.224 73.5221 157.195 74.0403C157.166 74.4721 157.425 74.8463 158.404 75.825C159.354 76.775 159.757 76.9189 160.419 76.631Z" fill="black"/>
  
  <path d="M132.901 43.2101C133.822 42.289 133.822 41.9723 132.987 41.1087L131.174 39.2952L128.842 41.6269L130.656 43.4404C131.462 44.2464 131.894 44.2177 132.901 43.2101Z" fill="black"/>
  
  <path d="M69.572 52.8248C68.6508 51.9037 68.3054 51.9037 67.4706 52.7385L65.6571 54.552L67.9887 56.8837L69.8023 55.0701C70.6371 54.2641 70.5795 53.8611 69.572 52.8248Z" fill="black"/>
  
  <path d="M172.781 88.9805C173.242 88.7502 173.53 88.5199 174.71 87.3397C176.236 85.814 176.38 85.5837 176.437 84.9792C176.466 84.5474 176.236 84.202 175.314 83.2808C174.508 82.4748 174.192 82.2733 173.76 82.2733C173.184 82.2445 172.868 82.4748 171.083 84.2307C169.874 85.4398 169.586 85.8428 169.557 86.3609C169.528 86.7927 169.787 87.1669 170.766 88.1457C171.716 89.1244 172.119 89.2683 172.781 88.9805Z" fill="black"/>
  
  <path d="M119.316 73.9541C119.258 73.9829 119.172 73.9829 119.114 74.0404C119.086 74.098 119.086 74.1844 119.086 74.2419C119.172 74.2132 119.258 74.1844 119.316 74.1556C119.345 74.0692 119.316 74.0116 119.316 73.9541Z" fill="black"/>
  
  <path d="M78.4335 41.4253L80.9379 46.1463L83.1832 43.901L78.4335 41.4253Z" fill="black"/>
  
  <path d="M96.0338 26.3702C95.1127 25.4491 94.7672 25.4491 93.9324 26.2839L92.1189 28.0974L94.4506 30.4291L96.2641 28.6156C97.0989 27.7808 97.0413 27.3778 96.0338 26.3702Z" fill="black"/>
  
  <path d="M107.427 188.236C106.995 188.207 106.621 188.466 105.642 189.445C104.692 190.395 104.548 190.798 104.836 191.46C105.066 191.92 105.296 192.237 106.448 193.388C107.974 194.914 108.204 195.058 108.78 195.116C109.211 195.144 109.557 194.914 110.449 193.993C111.255 193.187 111.457 192.87 111.485 192.438C111.514 191.863 111.284 191.546 109.528 189.761C108.348 188.581 107.974 188.293 107.427 188.236Z" fill="black"/>
  
  <path d="M183.683 94.1909C184.46 93.4137 184.632 93.0682 184.431 92.6076C184.316 92.3486 184.258 92.2622 183.769 91.7728L182.243 90.2472L179.796 92.694L181.264 94.1621C182.33 95.1984 182.646 95.2272 183.683 94.1909Z" fill="black"/>
  
  <path d="M150.341 145.315C149.909 145.286 149.535 145.545 148.556 146.524C147.606 147.474 147.463 147.877 147.75 148.539C147.952 149 148.211 149.288 149.362 150.468C150.888 151.993 151.118 152.137 151.723 152.195C152.155 152.224 152.5 151.993 153.393 151.072C154.199 150.266 154.4 149.95 154.4 149.518C154.429 148.942 154.199 148.626 152.443 146.841C151.262 145.632 150.888 145.373 150.341 145.315Z" fill="black"/>
  
  <path d="M158.724 136.967C158.292 136.938 157.918 137.197 156.939 138.176C155.989 139.126 155.846 139.529 156.133 140.191C156.335 140.652 156.594 140.94 157.745 142.12C159.271 143.646 159.501 143.818 160.106 143.847C160.538 143.876 160.883 143.646 161.775 142.724C162.582 141.918 162.783 141.602 162.783 141.17C162.812 140.594 162.582 140.278 160.826 138.493C159.645 137.284 159.242 137.025 158.724 136.967Z" fill="black"/>
  
  <path d="M165.201 130.059C164.596 130.663 164.423 131.095 164.539 131.613C164.654 132.131 165.028 132.621 166.179 133.772C167.273 134.866 167.763 135.24 168.252 135.327C168.713 135.413 169.144 135.24 169.72 134.636L171.62 132.736L167.072 128.188L165.201 130.059Z" fill="black"/>
  
  <path d="M142.52 159.708C143.441 160.63 143.786 160.658 144.621 159.795L146.435 157.981L144.103 155.65L142.289 157.463C141.455 158.298 141.512 158.701 142.52 159.708Z" fill="black"/>
  
  <path d="M116.036 186.163C116.957 187.084 117.303 187.113 118.138 186.249L119.951 184.436L117.62 182.104L115.806 183.918C115 184.753 115.029 185.156 116.036 186.163Z" fill="black"/>
  
  <path d="M133.624 171.136L131.148 166.415L128.903 168.661L133.624 171.136Z" fill="black"/>
  
  <path d="M190.771 104.928C190.339 104.899 189.965 105.159 188.986 106.137C188.037 107.087 187.893 107.49 188.18 108.152C188.411 108.613 188.641 108.93 189.821 110.081C191.347 111.607 191.577 111.779 192.153 111.808C192.585 111.837 192.93 111.607 193.851 110.686C194.657 109.88 194.859 109.563 194.888 109.131C194.916 108.555 194.686 108.239 192.93 106.454C191.692 105.245 191.289 104.957 190.771 104.928Z" fill="black"/>
  
  <path d="M211.23 104.41L107.829 1.00955C106.822 0.00202614 105.181 0.00202614 104.174 1.00955L0.773219 104.41C-0.234302 105.417 -0.234302 107.058 0.773219 108.066L104.145 211.437C105.152 212.445 106.822 212.445 107.829 211.437L211.201 108.066C212.237 107.058 212.237 105.417 211.23 104.41ZM184.919 90.0456C185.898 91.0243 185.898 91.0243 186.128 91.2834C186.819 92.0318 187.107 92.953 186.934 93.759C186.762 94.4787 186.359 95.0544 185.409 96.0331C184.257 97.1846 183.422 97.6451 182.616 97.5588C182.012 97.5012 181.436 97.2421 180.975 96.7816C180.889 96.724 180.659 96.4937 179.738 95.6013L178.298 94.162L176.111 96.3498L174.355 94.5938L181.954 86.9942L184.919 90.0456ZM172.858 79.8552C173.577 79.7113 174.441 79.9128 175.189 80.4022C175.564 80.6325 176.255 81.237 176.945 81.9278C178.01 82.9929 178.442 83.5687 178.701 84.202C179.104 85.2095 178.96 86.1594 178.27 87.1669C178.01 87.57 177.521 88.1169 176.485 89.1532C174.758 90.8804 174.182 91.3122 173.29 91.5425C172.512 91.7152 171.678 91.5425 170.843 90.9955C170.44 90.7364 169.778 90.1607 169.087 89.4698C167.907 88.2608 167.417 87.5987 167.216 86.8503C166.957 85.9003 167.129 85.1231 167.791 84.202C168.079 83.7989 168.425 83.3959 169.259 82.5611C171.217 80.5749 171.937 80.0279 172.858 79.8552ZM166.64 82.3308L164.02 79.7113L165.488 78.2432L168.108 80.8627L166.64 82.3308ZM162.84 68.0816C163.214 68.3119 163.905 68.9164 164.596 69.6073C165.661 70.6724 166.093 71.2481 166.352 71.8814C166.755 72.8889 166.64 73.8389 165.92 74.8464C165.661 75.2494 165.172 75.7676 164.135 76.8327C162.408 78.5598 161.833 78.9916 160.94 79.2219C160.163 79.3946 159.328 79.2219 158.493 78.675C158.09 78.4159 157.428 77.8402 156.737 77.1493C155.528 75.9403 155.068 75.2782 154.866 74.5298C154.607 73.5798 154.78 72.8026 155.442 71.8814C155.73 71.4784 156.104 71.0754 156.91 70.2406C158.896 68.2543 159.616 67.7074 160.537 67.5347C161.228 67.3908 162.092 67.5923 162.84 68.0816ZM153.139 59.5321C154.291 59.5609 155.01 59.9927 156.824 61.8062C157.889 62.8713 158.177 63.2743 158.407 63.8788C158.695 64.6561 158.58 65.3181 158.033 66.0954C157.831 66.3832 157.659 66.5847 156.968 67.3332L155.241 65.606C155.787 65.0591 155.874 64.9151 155.931 64.6561C156.047 64.2531 155.845 63.8788 155.039 63.0728C154.291 62.3244 153.859 62.0365 153.456 62.0365C152.966 62.0365 152.679 62.2668 151.067 63.8788C149.742 65.1742 149.512 65.4909 149.397 65.9514C149.253 66.4408 149.512 66.8726 150.318 67.6786C151.182 68.5422 151.671 68.8013 152.103 68.6286C152.391 68.5422 152.506 68.4271 152.995 67.9665L153.139 67.8225L154.866 69.5497L154.636 69.78C153.427 70.989 152.88 71.3057 151.988 71.2481C151.498 71.2193 150.894 70.989 150.433 70.6724C150.145 70.4709 149.483 69.8664 148.706 69.0891C147.267 67.6498 146.95 67.1317 146.835 66.1529C146.749 65.4909 147.008 64.6561 147.497 64.0228C147.929 63.4758 148.879 62.4395 149.944 61.3744C151.326 59.9639 152.132 59.5321 153.139 59.5321ZM147.871 52.9688L140.272 60.5684L138.516 58.8124L146.115 51.2129L147.871 52.9688ZM144.331 49.4281L142.891 50.8674L139.293 47.2691L137.623 48.9387L140.991 52.3067L139.754 53.5445L136.385 50.1765L134.601 51.9613L138.228 55.5884L136.789 57.0277L131.405 51.6446L139.005 44.0451L144.331 49.4281ZM134.687 39.8135C135.464 40.5907 135.896 41.1952 136.069 41.7134C136.414 42.7209 136.098 43.5557 134.975 44.6784C133.392 46.2616 132.758 46.4055 131.348 45.5132L131.29 45.5707C132.125 46.5207 132.068 47.4706 131.146 48.3918L129.621 49.9175L127.836 48.1327L129.016 46.9525C129.793 46.204 129.822 45.542 129.103 44.8799L127.318 43.0951L125.044 45.3692L123.288 43.6133L130.859 36.0137L134.687 39.8135ZM117.847 29.9398L119.286 24.0674L121.33 26.1112L120.611 28.6732C120.524 28.9898 120.438 29.1913 120.15 30.0549L119.977 30.5155L120.006 30.5443L120.467 30.4004C121.273 30.1125 121.503 30.0549 121.848 29.9398L124.439 29.1913L126.454 31.2352L120.582 32.7033L118.999 38.9211L116.984 36.9061L117.79 34.1138C117.876 33.7684 117.962 33.5381 118.279 32.5881L118.452 32.07L118.423 32.0412L117.905 32.2139C116.955 32.5305 116.667 32.6169 116.35 32.732L113.558 33.5093L111.485 31.4367L117.847 29.9398ZM111.226 60.8275C111.687 61.2017 112.205 61.1729 112.723 61.1729C114.134 61.1729 115.4 61.7486 116.753 62.0077C117.329 62.1229 117.905 62.2092 118.452 62.3244C118.653 62.3531 118.855 62.3819 119.056 62.4683C119.862 62.8713 120.668 63.2743 121.503 63.6773C121.647 63.7349 121.82 63.8213 121.964 63.85C123.403 64.0515 124.785 64.5121 126.08 65.1166C126.8 65.4621 127.462 66.009 128.124 66.4984C128.268 66.5847 128.383 66.815 128.527 66.815C129.707 66.7862 130.484 67.6498 131.434 68.168C132.24 68.6286 133.018 69.1179 133.795 69.5785C133.939 69.6649 134.169 69.7224 134.198 69.8376C134.63 70.9603 135.867 71.2769 136.587 72.1405C137.134 72.8026 137.623 73.551 138.487 73.8677C138.544 73.8965 138.631 73.954 138.66 74.0404C139.091 75.1343 140.013 75.9115 140.531 76.9478C140.617 77.1205 140.703 77.3508 140.876 77.4372C141.509 77.7826 141.74 78.4447 142.056 79.0204C143.208 81.0642 143.956 83.2808 144.705 85.4973C145.079 86.62 145.453 87.8866 145.338 89.182C145.28 90.1031 145.77 90.938 146.086 91.7728C146.173 92.003 146.374 92.2621 146.317 92.4636C146.058 93.759 146.374 94.9968 146.518 96.2634C146.576 96.8103 146.691 97.4149 146.518 97.9042C146.23 98.739 146.288 99.545 146.518 100.351C146.605 100.639 146.605 100.956 146.518 101.215C146.259 101.877 146.288 102.481 146.461 103.172C146.576 103.604 146.346 104.151 146.23 104.611C146.115 105.101 145.943 105.561 145.827 106.022C145.77 106.166 145.827 106.396 145.741 106.511C145.309 107.231 145.108 108.008 144.82 108.814C144.618 109.332 144.59 109.937 144.388 110.369C143.438 112.326 143.237 114.629 141.653 116.327C141.481 116.529 141.423 116.846 141.279 117.105C141.049 117.479 140.819 117.911 140.502 118.199C140.157 118.515 139.494 118.63 139.955 119.321C139.984 119.35 139.955 119.436 139.955 119.436C139.293 119.811 139.408 120.703 138.832 121.135C137.278 122.315 135.925 123.754 134.198 124.762C133.363 125.222 132.672 126.028 131.751 126.431C131.405 126.575 131.06 126.719 130.686 126.806C129.937 126.978 129.103 126.863 128.671 127.784C128.613 127.928 128.21 127.986 127.98 128.015C126.886 128.187 125.792 128.331 124.669 128.475C124.007 128.562 123.892 128.763 124.094 129.368C124.18 129.627 124.353 129.886 124.497 130.145C125.303 131.555 126.08 132.995 126.944 134.376C127.491 135.211 128.153 135.96 128.786 136.766C129.16 137.226 129.074 137.514 128.498 137.601C127.462 137.773 126.425 137.888 125.418 138.09C121.733 138.896 118.797 140.825 116.609 143.876C116.293 144.337 115.976 144.308 115.573 144.135C114.364 143.617 113.616 142.696 113.328 141.458C113.213 140.997 113.04 140.623 112.781 140.22C111.946 138.867 111.917 137.399 112.032 135.845C112.147 134.492 112.09 133.081 112.119 131.728C112.119 131.469 112.032 131.21 112.09 130.98C112.407 129.598 112.176 128.245 111.946 126.863C111.86 126.374 111.802 125.885 111.716 125.395C111.572 124.33 111.428 123.265 111.284 122.2C111.255 121.941 111.255 121.71 111.226 121.451C111.14 120.789 110.967 120.156 110.996 119.523C111.054 118.602 111.082 117.652 111.399 116.817C111.831 115.579 112.464 114.399 113.011 113.19C113.126 112.959 113.241 112.729 113.241 112.499C113.27 110.743 114.335 109.476 115.199 108.095C115.371 107.807 115.573 107.576 116.034 107.749C116.206 107.807 116.523 107.72 116.696 107.605C116.955 107.432 117.07 107.576 117.185 107.749C117.329 108.008 117.444 108.123 117.732 107.893C117.933 107.692 118.221 107.548 118.48 107.461C118.826 107.317 119.258 107.375 119.488 107.145C119.603 107.029 119.373 106.54 119.344 106.195C119.344 106.051 119.43 105.878 119.546 105.763C119.977 105.274 120.409 104.813 120.87 104.324C120.985 104.208 121.186 104.064 121.273 104.122C121.618 104.295 121.906 104.093 122.223 104.064C122.597 104.036 122.971 104.352 122.798 104.669C122.482 105.274 122.712 105.561 123.201 105.849C123.317 105.936 123.288 106.31 123.317 106.54C123.345 106.914 123.489 107.231 123.863 107.26C124.353 107.317 124.871 107.289 125.245 107.72C125.274 107.749 125.533 107.663 125.619 107.576C125.792 107.404 125.936 107.173 126.051 106.972C126.109 106.886 126.022 106.742 126.022 106.655C125.044 107.145 125.562 105.619 124.813 105.763C124.785 105.763 124.698 105.417 124.641 105.245C124.785 105.245 124.9 105.274 125.044 105.274C125.159 105.274 125.303 105.274 125.389 105.216C125.907 104.669 126.397 104.698 126.915 105.187C127.001 105.274 127.231 105.274 127.318 105.187C127.491 105.043 127.634 104.842 127.807 104.669C128.095 105.245 128.757 104.899 129.131 105.187C129.304 105.302 129.39 105.648 129.362 105.849C129.275 106.31 129.65 106.483 129.851 106.77C129.995 106.972 130.599 106.626 130.34 107.145C130.139 107.461 129.563 107.548 129.275 107.346C129.16 107.289 129.074 107.202 128.959 107.202C128.901 107.173 128.815 107.26 128.728 107.289C128.728 107.289 128.757 107.432 128.786 107.432C129.362 107.634 128.959 108.181 129.16 108.526C129.333 108.757 128.642 109.016 129.074 109.217C129.419 109.39 129.851 109.39 130.254 109.448C130.369 109.448 130.484 109.304 130.599 109.304C130.801 109.275 131.031 109.304 131.233 109.275C131.722 109.217 131.837 109.62 132.039 109.908C132.125 109.563 132.096 109.131 132.269 108.843C132.557 108.411 132.96 108.037 133.363 107.692C133.449 107.605 133.708 107.548 133.795 107.605C134.514 108.21 134.745 107.576 134.889 107.116C135.033 106.684 135.176 106.742 135.522 106.914C135.839 107.087 136.213 107.116 136.558 107.26C136.846 107.375 137.278 107.289 137.508 107.058C137.652 106.914 137.854 106.828 138.026 106.742C138.775 106.425 138.832 106.396 138.602 105.705C138.429 105.187 138.544 105.014 139.034 104.928C139.207 104.899 139.35 104.727 139.523 104.611C139.782 104.41 140.157 104.237 139.955 103.834C139.84 103.633 139.552 103.431 139.293 103.402C138.947 103.345 138.746 103.258 138.746 102.884C138.746 102.51 138.89 102.251 139.293 102.165C139.581 102.136 139.869 102.107 140.157 102.049C140.272 102.021 140.387 101.877 140.387 101.79C140.387 101.704 140.272 101.56 140.185 101.503C139.84 101.243 138.804 101.1 138.285 101.416C137.681 101.762 137.652 100.927 137.364 101.013C137.019 101.128 136.875 101.733 136.357 101.56C136.098 101.474 135.839 101.272 135.579 101.157C135.292 101.042 134.975 100.984 134.658 100.898C134.658 100.898 134.658 100.898 134.658 100.927L134.63 100.898H134.658C134.601 100.322 134.802 99.9481 135.464 99.9193C135.925 99.8905 136.069 99.6602 135.867 99.2572C135.522 98.5663 136.098 98.739 136.414 98.6527C136.616 98.7966 136.817 98.9693 137.048 99.1133C137.105 99.142 137.192 99.0845 137.278 99.0557C137.22 98.9981 137.192 98.883 137.134 98.8542C136.932 98.7678 136.702 98.7102 136.472 98.6239C136.242 98.1921 135.781 98.336 135.464 98.3936C134.831 98.4799 134.63 98.0769 134.514 97.6164C134.428 97.3573 134.543 97.0406 134.486 96.7528C134.428 96.3786 134.486 96.0043 134.831 95.918C135.205 95.8316 135.407 96.1483 135.436 96.5225C135.436 96.6088 135.493 96.6664 135.493 96.7528C135.579 96.6952 135.666 96.6376 135.695 96.5513C135.896 96.1483 136.04 95.7165 136.27 95.3135C136.414 95.0544 136.645 94.968 136.875 95.2559C137.019 95.4574 137.134 95.6877 137.307 95.8604C137.393 95.9468 137.623 95.9755 137.681 95.918C137.825 95.774 137.911 95.4862 138.113 95.7452C138.199 95.8892 138.66 96.1771 138.141 96.4073C138.084 96.4361 138.055 96.5225 138.026 96.6088C138.113 96.6376 138.228 96.7528 138.285 96.724C138.602 96.58 138.919 96.4073 139.235 96.2058C139.293 96.1771 139.322 95.8604 139.264 95.8604C138.429 95.5437 138.775 94.7377 138.573 94.162C138.429 93.759 137.998 93.4423 137.537 93.5863C137.335 93.6438 137.249 93.7014 137.192 93.4423C137.163 93.3272 137.105 93.1257 137.076 93.1257C136.069 93.0393 136.213 92.2045 136.357 91.6864C136.529 91.0243 136.932 90.3334 137.796 90.3622C138.314 90.391 138.487 90.1895 138.487 89.7289C138.487 89.585 138.516 89.4698 138.544 89.3259C138.401 89.3835 138.228 89.4123 138.113 89.4986C137.796 89.6713 137.451 90.1031 137.422 89.2971C137.422 89.2683 137.22 89.1532 137.163 89.182C136.731 89.4411 136.414 89.585 136.385 88.8365C136.385 88.5199 135.551 88.5487 135.896 87.973C135.81 87.9442 135.695 87.9154 135.608 87.9442C135.32 88.0305 135.09 88.1745 134.889 87.7715C134.716 87.4548 133.939 87.7427 134.025 87.1957C134.054 86.9654 134.601 86.7927 134.889 86.5624C135.004 86.4761 135.061 86.2458 135.061 86.0731C135.061 85.5261 135.263 85.3822 135.752 85.5261C136.299 85.6701 136.846 85.7852 137.422 85.9003C137.537 85.9291 137.71 85.8428 137.825 85.7852C138.113 85.6413 138.401 85.4686 138.688 85.2958C138.717 85.3534 138.746 85.411 138.775 85.4973C138.804 85.4686 138.861 85.411 138.89 85.3822C138.832 85.3534 138.746 85.3246 138.688 85.2958C138.401 84.8065 138.026 84.7489 137.566 85.0655C137.307 85.2383 136.961 85.3534 136.817 85.008C136.645 84.5762 136.414 84.6625 136.069 84.7201C135.752 84.7777 135.637 84.5474 135.839 84.2595C136.242 83.6838 136.673 83.1081 137.048 82.5036C137.105 82.4172 137.019 82.2157 137.019 82.0718C136.904 82.1006 136.76 82.1006 136.702 82.1581C136.558 82.3021 136.472 82.5036 136.299 82.6187C135.982 82.849 135.464 82.7051 135.407 82.3021C135.32 81.7263 135.205 81.7839 134.658 81.899C134.227 81.9854 133.737 81.899 133.277 82.1006C133.19 82.1293 133.018 82.0142 132.874 81.9566C132.471 81.8127 132.068 81.6112 131.665 81.5248C131.492 81.496 131.29 81.7551 131.089 81.899C130.945 82.043 130.859 82.3021 130.686 82.3308C130.312 82.4172 129.909 82.4172 129.506 82.3884C129.39 82.3884 129.16 82.1869 129.16 82.0718C129.16 81.2657 128.642 81.1794 128.037 81.1218C127.807 81.093 127.634 80.8052 127.404 80.7476C127.231 80.69 126.972 80.7476 126.857 80.8627C126.656 81.0067 126.828 81.64 126.425 81.4097C125.879 81.093 125.13 81.5248 124.727 80.834C124.641 80.6612 124.439 80.5461 124.266 80.4022C123.921 80.1431 123.691 80.2294 123.489 80.6037C123.201 81.1794 123.173 81.1506 122.626 80.8052C122.395 80.6612 122.107 80.5461 121.82 80.4885C121.474 80.4022 121.417 80.2582 121.561 79.9704C121.561 79.9416 121.33 79.7689 121.301 79.7689C120.726 80.1431 120.668 79.8552 120.726 79.3659C120.783 78.9053 120.438 78.7038 120.179 78.4447C120.121 78.3871 120.006 78.3583 119.92 78.3871C118.912 78.7901 118.912 78.7901 118.567 77.8402C118.538 77.7826 118.452 77.7538 118.394 77.725L118.365 77.6963C118.365 77.6963 118.394 77.6963 118.394 77.725C118.48 77.4372 119.344 77.2069 118.48 76.8039C118.452 76.7751 118.509 76.516 118.567 76.3721C118.711 76.0266 118.883 75.6812 119.056 75.3646C119.258 75.0191 119.027 74.76 118.768 74.6449C118.596 74.5585 118.25 74.1843 118.106 74.7313C118.106 74.76 118.049 74.8176 118.02 74.8176C117.502 74.9903 117.012 75.1631 116.494 75.3358C116.437 74.8176 116.35 74.2995 116.293 73.7813C116.264 73.6374 116.35 73.4647 116.293 73.3207C116.264 73.2632 116.091 73.1768 115.976 73.1768C115.861 73.1768 115.688 73.3207 115.688 73.3207C115.947 73.9252 115.112 74.5585 115.688 75.1631C115.717 75.1918 115.659 75.4221 115.602 75.4221C115.199 75.5661 114.767 75.8539 114.364 75.5661C114.019 75.307 113.788 75.4221 113.472 75.5948C113.04 75.8539 113.011 76.0266 113.443 76.2857C113.558 76.3433 113.616 76.4584 113.731 76.516C113.587 76.5736 113.443 76.6599 113.328 76.6312C113.126 76.6024 112.925 76.5448 112.752 76.4584C112.579 76.3721 112.493 76.2857 112.694 76.113C112.781 76.0554 112.781 75.8827 112.81 75.7964C112.953 75.2782 112.81 74.4434 112.493 73.8389C112.435 73.7237 112.464 73.551 112.464 73.4071C112.464 73.2919 112.435 73.1192 112.435 73.1192C111.658 73.2056 111.399 72.3996 110.823 72.1117C110.651 72.0253 110.449 71.8238 110.363 71.6511C110.219 71.3057 110.046 71.4784 109.931 71.6223C109.845 71.7087 109.873 71.8526 109.787 71.9678C109.643 72.1981 109.442 72.3708 109.211 72.0829C108.895 71.6799 108.492 71.5648 108.002 71.5072C107.57 71.4496 106.966 71.4208 106.937 70.7012C106.937 70.586 106.448 70.3557 106.361 70.4133C105.872 70.73 105.411 70.4709 104.951 70.4997C104.634 70.4997 104.116 70.5285 104.461 71.1618C104.548 71.3057 104.404 71.5648 104.461 71.7375C104.519 72.0253 104.375 72.1693 104.145 72.1405C103.972 72.1117 103.655 71.9102 103.684 71.8814C103.972 71.1042 103.425 70.8739 102.965 70.5285C102.849 70.4421 102.849 70.2118 102.763 70.0967C102.619 69.8664 102.36 69.8664 102.303 70.1255C102.216 70.4709 102.072 70.6148 101.727 70.6436C101.525 70.6724 101.266 70.7588 101.18 70.9315C100.719 71.8526 99.539 71.4784 98.9345 72.1405C98.8482 72.2269 98.5027 72.0541 98.4164 72.1405C98.0709 72.4571 97.7255 72.7738 97.4376 73.1768C97.2937 73.3783 96.7468 73.5222 97.1498 73.954C97.1498 73.9828 97.0346 74.1843 96.9483 74.1843C96.8331 74.2131 96.6604 74.1555 96.6316 74.0692C96.5453 73.8965 96.5165 73.6662 96.4589 73.4647C96.4301 73.3207 96.3438 73.1768 96.315 73.0041C96.2286 73.148 96.171 73.2919 96.0847 73.4071C95.8544 73.7813 95.3074 73.695 95.0772 74.2131C94.9332 74.5298 94.156 74.5298 94.5878 75.2206C94.5878 75.2494 94.3287 75.5373 94.2711 75.5373C93.4939 75.2494 93.7242 75.7388 93.753 76.1706C93.753 76.4297 93.6091 76.919 93.4939 76.9478C92.9758 77.0342 92.8606 77.6099 92.4 77.6963C92.2849 77.725 92.141 77.6675 92.0546 77.6099C91.9107 77.466 91.8531 77.2357 91.738 77.0917C91.6228 76.9478 91.4501 76.8902 91.2774 76.7751C91.2486 76.9766 91.1047 77.2357 91.1622 77.3508C91.4789 77.869 91.3349 78.3008 91.1046 78.7613C91.0183 78.9053 90.9895 79.078 90.8744 79.1931C90.6153 79.4522 90.385 79.9992 89.9532 79.3083C89.8093 79.078 89.3487 79.078 89.0608 78.9916C88.9457 78.9628 88.8017 78.9916 88.6866 78.9341C88.4563 78.8189 88.226 78.6462 87.9957 78.5023C87.9382 78.8477 87.9094 79.2219 87.8518 79.5674C87.8518 79.5961 87.8806 79.6537 87.8806 79.6825C88.3412 80.5749 87.6215 79.9416 87.5064 79.9416C87.1033 79.9416 86.7291 79.5674 86.3261 79.9416C86.0095 80.287 85.7504 80.7188 85.3762 80.9491C85.002 81.1794 84.5126 81.2082 84.2535 81.6688C84.1672 81.8127 84.0232 81.9566 83.8505 82.0142C82.843 82.3308 82.6415 83.4247 81.9794 84.058C81.9218 84.1156 81.9506 84.2307 81.9506 84.3171C82.037 84.7489 82.296 85.1519 81.7203 85.5837C81.3749 85.8428 81.3461 86.5336 80.7128 86.5624C80.6552 86.5624 80.5401 86.7639 80.5689 86.8215C80.8855 87.3397 81.2309 87.8578 81.6052 88.3472C81.9218 88.7502 82.0082 88.6926 82.296 88.2032C82.44 87.973 82.6703 87.5987 82.8142 87.6275C83.3323 87.7139 83.7066 87.0518 84.2535 87.4548C84.4262 87.57 84.5989 87.6851 84.8005 87.7715C86.0383 88.376 86.0383 88.376 85.7504 89.6713C85.7216 89.8441 85.5489 90.1031 85.4337 90.1031C85.2035 90.1319 84.9444 90.0168 84.7717 89.9016C84.6277 89.7865 84.6277 89.5274 84.5414 89.3259C84.3111 88.8365 83.8217 88.8078 83.5051 89.2683C83.4187 89.3835 83.4475 89.6138 83.3899 89.7577C83.246 90.0456 83.0157 90.2183 82.699 89.9304C82.44 89.7001 82.1233 89.3835 81.8355 89.7001C81.5476 89.988 81.4037 90.391 81.2597 90.7652C81.2309 90.8516 81.3749 91.0531 81.4612 91.1682C81.7203 91.4849 82.0082 91.7728 82.2673 92.0894C82.4975 92.3485 83.1021 92.6939 83.4475 92.6939C83.7929 92.6651 84.0232 92.8091 84.0808 93.1545C84.1384 93.5287 84.0232 93.8454 83.6202 93.8741C83.3036 93.9029 83.0445 93.8741 83.0157 94.3059C82.9869 94.7089 83.0445 94.968 83.5339 94.968C83.5914 94.968 83.649 95.1407 83.7066 95.2271C83.1021 95.5438 83.6202 96.6952 82.5263 96.7528C82.1809 96.7528 81.8642 97.2997 81.49 97.5876C81.2597 97.7603 81.1734 97.7027 81.1734 97.3861C81.1734 97.2421 80.9431 97.0982 80.7991 96.9831C80.684 97.127 80.4825 97.2709 80.5113 97.4436C80.5113 97.9042 80.3961 98.2497 80.0507 98.5663C79.7916 98.7678 79.3598 98.9693 79.3598 99.1996C79.3598 99.5163 79.4462 99.8041 79.331 100.15C79.2447 100.409 79.4462 100.783 79.5901 101.042C79.7628 101.33 80.0507 101.33 80.3674 101.157C80.4825 101.1 80.7128 101.272 80.8567 101.359C80.9719 101.445 81.0582 101.704 81.1734 101.704C81.3749 101.733 81.7203 101.416 81.6915 101.877C81.6627 102.251 81.4612 102.654 81.2885 102.999C81.2885 103.028 81.1446 103.028 81.0582 103.028C80.7128 102.999 80.4537 103.028 80.7128 103.489C80.7416 103.546 80.7704 103.69 80.7416 103.719C80.281 104.208 79.8204 104.669 80.1946 105.417C80.2234 105.475 79.9931 105.677 79.878 105.763C79.5038 106.022 79.1295 106.252 78.7841 106.569C78.669 106.655 78.5826 107.029 78.6402 107.058C79.2159 107.404 78.928 107.576 78.525 107.749C78.3235 107.836 78.1508 107.951 78.0069 108.095C77.8342 108.296 77.7478 108.555 77.6327 108.785C77.8629 108.757 78.122 108.785 78.3235 108.728C79.1871 108.526 79.4462 108.728 79.1295 109.591C78.8129 110.455 79.1295 111.175 79.5038 111.837C79.7053 112.182 80.3674 112.24 80.8567 112.355C80.9143 112.384 81.1158 111.894 81.2022 111.635C81.3173 111.29 81.4612 110.973 81.8642 111.347C82.3824 111.808 83.0445 111.722 83.6202 111.923C84.1096 112.096 84.5414 112.182 84.3399 112.902C84.2535 113.19 84.4838 113.65 84.6853 113.938C84.9732 114.428 85.3474 113.852 85.6928 113.909C86.2685 114.025 86.7003 113.737 86.9594 113.19C87.0458 113.017 87.2761 112.902 87.42 112.787C87.4776 112.729 87.5639 112.729 87.6503 112.7C87.6791 112.816 87.7654 112.931 87.7366 113.017C87.5927 113.449 87.5927 113.737 88.1972 113.679C88.4275 113.65 88.6578 113.794 88.9169 113.852C89.6941 114.053 90.0971 113.765 90.0971 112.931C90.0971 112.902 90.0396 112.844 90.0396 112.816C90.0108 112.499 90.0971 112.125 89.9244 111.923C89.8093 111.779 89.4063 111.837 89.1472 111.837V111.866L89.1184 111.837H89.1472C89.3199 111.376 89.4063 110.887 89.6941 110.513C89.982 110.138 90.4426 109.937 90.8456 109.678C90.8744 109.649 91.0759 109.851 91.1622 109.966C91.3637 110.225 91.4789 110.772 91.9107 110.138C91.9395 110.081 92.0834 110.081 92.141 110.11C92.803 110.225 92.8894 109.851 92.947 109.332C93.0045 108.843 93.35 108.728 93.7242 109.045C93.8681 109.188 93.9833 109.361 94.0984 109.534C94.3287 109.937 94.6741 109.937 94.9044 109.649C95.1347 109.361 95.365 109.304 95.6529 109.39C96.1135 109.534 96.6028 109.735 97.0346 109.937C97.0634 109.966 96.9771 110.225 96.9771 110.369C96.9771 110.599 96.9771 111.002 97.0634 111.031C97.3801 111.146 97.5816 110.916 97.6967 110.57C97.7255 110.455 97.8119 110.369 97.8982 110.254C97.927 110.196 98.0709 110.167 98.0997 110.167C98.5027 110.887 99.0785 110.254 99.5678 110.34C100.748 110.599 101.756 111.146 102.619 112.182C103.281 112.988 103.857 113.823 104.346 114.773C105.008 116.068 105.843 117.277 106.707 118.429C107.225 119.149 107.57 119.839 107.542 120.732C107.484 121.912 107.369 123.063 107.398 124.244C107.426 125.741 107.599 127.237 107.714 128.734C107.801 129.857 107.945 130.98 107.973 132.102C108.002 132.851 108.232 133.57 108.06 134.319C107.887 135.096 107.916 135.902 107.686 136.651C107.455 137.428 107.426 138.176 107.513 138.953C107.657 140.335 107.686 141.717 107.743 143.099C107.829 144.682 107.916 146.265 108.031 147.848C108.089 148.856 107.916 149.835 107.686 150.813C107.513 151.504 107.369 152.195 107.254 152.886C106.995 154.498 105.555 156.053 103.972 156.225C102.418 156.398 100.892 156.427 99.3375 156.513C99.0785 156.542 98.8194 156.513 98.5891 156.456C98.0997 156.34 98.0421 156.11 98.3012 155.65C98.6754 155.016 99.1648 154.412 99.4527 153.721C100.316 151.763 100.23 149.691 99.5966 147.705C98.3876 143.847 96.1998 140.623 92.8894 138.234C92.4288 137.888 91.8819 137.601 91.3349 137.428C90.5577 137.198 89.8093 136.996 88.9457 137.428C87.4488 138.176 85.7792 138.378 84.1384 138.608C82.0082 138.925 79.8492 138.694 77.719 138.838C75.4449 138.982 73.0844 136.535 73.7177 133.513C73.7753 133.283 73.948 133.052 74.0632 132.851C74.7828 131.642 74.5813 130.519 73.4586 129.656C72.336 128.792 72.0193 127.612 72.6526 126.374C72.9405 125.798 72.8541 125.539 72.4223 125.136C71.8466 124.589 71.6163 123.898 71.6163 123.092C71.6163 122.257 71.6739 121.567 72.7102 121.394C72.9405 121.365 73.1132 121.106 73.3147 120.933C74.0919 120.214 74.0632 119.724 73.1132 119.235C72.7102 119.033 72.2496 118.947 71.789 118.889C69.8604 118.602 69.2558 117.133 69.774 115.349C69.8604 115.032 70.0331 114.715 70.2346 114.456C71.9905 112.297 73.3147 109.879 74.754 107.548C75.0995 107.029 75.3873 106.454 75.5888 105.878C75.704 105.59 75.6176 105.216 75.5313 104.928C74.9843 103.316 75.0419 101.733 75.5025 100.121C75.6464 99.5738 75.7616 98.9981 75.9343 98.4224C76.1358 97.6739 76.3373 96.8967 76.6251 96.177C76.7691 95.8028 76.7691 95.5437 76.4812 95.2847C75.4737 94.4499 75.3873 93.0393 74.5813 92.0894C74.6389 90.7077 73.7465 89.5562 73.6601 88.232C73.6026 87.5412 73.8617 86.8215 73.4586 86.1594C73.4299 86.1019 73.4299 85.9579 73.4586 85.9003C74.1495 84.9792 73.6026 83.9717 73.6889 83.0217C73.7177 82.8202 73.6889 82.5899 73.6889 82.3884C73.6889 81.3233 74.6965 80.4309 74.1783 79.3083C74.4374 78.272 74.6677 77.2069 75.0131 76.1706C75.2434 75.5085 75.7903 74.9903 75.7903 74.2131C75.7903 73.954 76.4524 73.7237 76.4812 73.4359C76.5676 72.5723 77.1721 72.0254 77.5175 71.3057C77.8629 70.6436 78.266 70.0679 78.8705 69.5497C79.475 69.0604 79.8204 68.2831 80.281 67.6498C80.7128 67.0741 81.2022 66.5272 81.8355 66.1529C82.296 65.8651 82.6703 65.4621 83.1021 65.1454C83.3899 64.9151 83.7066 64.6848 84.0232 64.5121C84.8292 64.1091 85.6353 63.7349 86.4413 63.3319C87.4488 62.8425 88.4851 62.3532 89.4926 61.8926C89.6653 61.8062 89.8956 61.7774 90.0971 61.8062C90.788 61.8638 91.3637 61.5759 91.997 61.3168C92.7743 60.9714 93.6954 60.9138 94.559 60.7987C95.3938 60.6835 96.2574 60.3093 97.121 60.7411C97.2649 60.8275 97.524 60.7123 97.7255 60.6548C98.8194 60.2805 99.942 60.2518 101.065 60.2805C102.274 60.3093 103.512 60.2805 104.721 60.2805C104.98 60.2805 105.239 60.223 105.469 60.3093C106.16 60.5684 106.736 60.482 107.369 60.1366C107.858 59.8775 108.434 59.9063 108.895 60.3381C109.211 60.6548 109.499 60.8275 110.017 60.6548C110.449 60.5396 110.967 60.626 111.226 60.8275ZM98.6754 18.6555C98.9057 18.2813 99.5102 17.5905 100.201 16.8996C101.266 15.8345 101.842 15.4027 102.475 15.1436C103.483 14.7406 104.433 14.8558 105.44 15.5754C105.843 15.8345 106.361 16.3239 107.426 17.3602C109.154 19.0873 109.585 19.6631 109.816 20.5554C109.988 21.3327 109.816 22.1675 109.269 23.0023C109.01 23.4053 108.434 24.0674 107.743 24.7582C106.534 25.9961 105.843 26.4566 105.095 26.6581C104.145 26.9172 103.339 26.7445 102.446 26.0824C102.043 25.7945 101.64 25.4203 100.806 24.6143C98.8194 22.6281 98.2724 21.9084 98.0997 20.9872C97.9558 20.2676 98.1861 19.404 98.6754 18.6555ZM92.6303 24.5855C93.4075 23.8083 94.0121 23.3765 94.5302 23.2038C95.5377 22.8583 96.3725 23.175 97.4952 24.2977C99.0785 25.8809 99.2224 26.5142 98.33 27.9247L98.3876 27.9823C99.3375 27.1475 100.287 27.2051 101.209 28.155L102.734 29.6519L100.95 31.4367L99.7693 30.2564C99.0209 29.4792 98.3588 29.4504 97.6967 30.1701L95.9407 31.926L98.2149 34.2001L96.4589 35.9561L88.8593 28.3565L92.6303 24.5855ZM87.3336 29.911L88.773 31.3503L85.3186 34.8047L87.0746 36.5606L90.2986 33.3366L91.738 34.7759L88.5139 37.9999L91.4501 40.9361L89.6941 42.6921L82.0945 35.0925L87.3336 29.911ZM78.4099 38.806L88.4275 43.9587L86.6428 45.7435L84.8292 44.7935L81.8355 47.7873L82.7854 49.572L80.9719 51.3856L75.7903 41.3967L78.4099 38.806ZM66.1757 51.0401C66.9529 50.2629 67.5574 49.8311 68.0756 49.6584C69.0831 49.313 69.9179 49.6296 71.0406 50.7523C72.6238 52.3355 72.7678 52.9688 71.8754 54.3793L71.933 54.4369C72.8829 53.6021 73.8329 53.6597 74.754 54.6096L76.2797 56.1065L74.495 57.8913L73.3147 56.711C72.5663 55.9338 71.9042 55.905 71.2421 56.6247L69.4574 58.4094L71.7315 60.6835L69.9755 62.4395L62.3759 54.8399L66.1757 51.0401ZM55.7551 61.5759C55.9854 61.2017 56.5899 60.5108 57.2807 59.82C58.3458 58.7549 58.9216 58.3231 59.5549 58.064C60.5624 57.661 61.5123 57.7761 62.5198 58.4958C62.9229 58.7549 63.441 59.2442 64.5061 60.2805C66.2333 62.0077 66.6651 62.5834 66.8954 63.4758C67.0681 64.253 66.8954 65.0879 66.3484 65.9227C66.0894 66.3257 65.5136 66.9877 64.8228 67.6786C63.6137 68.8876 62.9516 69.3482 62.2032 69.5497C61.2533 69.8088 60.4472 69.6361 59.5549 68.974C59.1519 68.6861 58.7488 68.3119 57.914 67.5059C55.9278 65.5196 55.3808 64.8 55.2081 63.8788C55.0354 63.188 55.2657 62.3244 55.7551 61.5759ZM47.3783 69.9527C47.6085 69.5785 48.2131 68.8876 48.9039 68.1968C49.969 67.1317 50.5447 66.6999 51.178 66.4408C52.1856 66.0378 53.1355 66.1817 54.143 66.8726C54.546 67.1605 55.0642 67.621 56.1293 68.6573C57.8565 70.3845 58.2883 70.9603 58.5186 71.8526C58.6913 72.6299 58.5185 73.4647 57.9716 74.2995C57.7125 74.7025 57.1368 75.3646 56.4459 76.0554C55.2369 77.2357 54.5748 77.725 53.8264 77.9265C52.8764 78.1856 52.0704 78.0129 51.178 77.3508C50.775 77.063 50.372 76.6887 49.5372 75.8827C47.551 73.8965 47.004 73.1768 46.8313 72.2556C46.6874 71.5648 46.8889 70.7012 47.3783 69.9527ZM41.074 76.1418C43.1179 74.098 44.8451 74.1267 46.9752 76.2281C49.1342 78.4159 49.7387 79.1068 49.9978 79.8552C50.4584 81.1506 50.0554 82.3021 48.6161 83.7702L44.7875 87.5987L37.1879 79.9992L41.074 76.1418ZM35.8062 81.4097L37.303 82.9354L35.1441 85.0943L41.218 91.1682L39.462 92.9242L33.3881 86.8503L31.3443 88.8941L29.8186 87.3972L35.8062 81.4097ZM23.7447 93.4711L28.7823 98.5087C29.7322 99.4587 30.1065 99.4011 31.4306 98.0769C32.6684 96.8391 32.6972 96.4937 31.6609 95.4862L26.7097 90.5349L28.4656 88.779L33.3881 93.7014C33.5896 93.9029 34.1653 94.5362 34.3668 94.7953C34.9138 95.4286 35.0577 96.2922 34.8274 97.0694C34.5971 97.8179 34.1941 98.3648 32.9275 99.6314C31.7473 100.812 31.1428 101.301 30.4519 101.531C29.2717 101.992 28.4944 101.675 27.0839 100.265L22.0463 95.2271L23.7447 93.4711ZM21.7584 109.994C20.8085 110.254 20.0313 110.081 19.1101 109.419C18.7071 109.131 18.3041 108.785 17.4981 107.951C15.5118 105.964 14.9649 105.245 14.7922 104.324C14.6482 103.604 14.8497 102.74 15.3391 101.992C15.5694 101.618 16.1739 100.927 16.8648 100.236C17.9299 99.1708 18.5056 98.739 19.1389 98.4799C20.1464 98.0769 21.0964 98.1921 22.1039 98.9118C22.5069 99.1708 23.025 99.6602 24.0901 100.696C25.8173 102.424 26.2491 102.999 26.4794 103.892C26.6521 104.669 26.4794 105.504 25.9324 106.339C25.6446 106.77 25.0976 107.432 24.378 108.123C23.1978 109.304 22.5069 109.793 21.7584 109.994ZM27.0551 122.459C26.0764 121.48 26.0764 121.48 25.8461 121.221C25.1552 120.473 24.8674 119.552 25.0401 118.746C25.2128 118.026 25.6158 117.45 26.5657 116.471C27.7172 115.32 28.552 114.859 29.358 114.946C29.9625 115.003 30.5383 115.262 30.9988 115.694C31.0852 115.752 31.3155 115.982 32.2366 116.874L33.676 118.314L35.8637 116.126L37.6197 117.882L30.0201 125.481L27.0551 122.459ZM39.1454 132.62C38.4257 132.764 37.5621 132.534 36.8137 132.074C36.4394 131.843 35.7486 131.239 35.0577 130.548C33.9926 129.483 33.5608 128.907 33.3017 128.274C32.8987 127.266 33.0427 126.316 33.7335 125.309C34.0214 124.906 34.482 124.388 35.5183 123.323C37.2455 121.595 37.8212 121.164 38.7136 120.933C39.4908 120.761 40.3256 120.933 41.1604 121.48C41.5634 121.739 42.2255 122.315 42.9164 123.006C44.1254 124.215 44.586 124.877 44.7875 125.625C45.0466 126.575 44.8738 127.353 44.2118 128.274C43.9239 128.677 43.5785 129.08 42.7437 129.915C40.7862 131.93 40.0377 132.477 39.1454 132.62ZM45.3632 130.145L47.9828 132.764L46.5147 134.233L43.8951 131.613L45.3632 130.145ZM49.163 144.423C48.7888 144.193 48.0979 143.588 47.407 142.897C46.3419 141.832 45.9101 141.256 45.6511 140.623C45.2481 139.616 45.392 138.666 46.0829 137.658C46.3419 137.255 46.8313 136.708 47.8676 135.672C49.5948 133.945 50.1705 133.513 51.0629 133.283C51.8401 133.11 52.6749 133.283 53.5097 133.83C53.9127 134.089 54.5748 134.664 55.2657 135.355C56.4459 136.535 56.9353 137.226 57.1368 137.975C57.3959 138.925 57.2232 139.702 56.5611 140.623C56.2732 141.026 55.9278 141.429 55.093 142.235C53.1067 144.221 52.3871 144.768 51.4659 144.941C50.7463 145.114 49.8827 144.912 49.163 144.423ZM58.864 152.944C57.7125 152.915 56.9929 152.483 55.1793 150.67C54.1142 149.604 53.8264 149.201 53.5961 148.597C53.3082 147.82 53.4234 147.158 53.9703 146.38C54.1718 146.092 54.3445 145.891 55.0354 145.143L56.7626 146.87C56.2156 147.417 56.1293 147.561 56.0429 147.82C55.9278 148.223 56.1581 148.597 56.9353 149.403C57.6838 150.151 58.1155 150.439 58.5186 150.439C59.0079 150.439 59.2958 150.209 60.9078 148.597C62.232 147.302 62.4623 146.985 62.5774 146.524C62.7214 146.035 62.4623 145.603 61.6563 144.797C60.7927 143.962 60.3033 143.674 59.8715 143.847C59.5836 143.934 59.4685 144.049 59.0079 144.509L58.864 144.653L57.1368 142.926L57.3671 142.696C58.5761 141.487 59.1231 141.199 60.0154 141.228C60.5048 141.256 61.1093 141.487 61.5699 141.803C61.8578 142.005 62.5198 142.609 63.2971 143.387C64.7364 144.826 65.053 145.344 65.1682 146.323C65.2545 146.985 64.9955 147.82 64.5061 148.424C64.0743 148.971 63.1244 150.007 62.0593 151.073C60.6775 152.512 59.8715 152.972 58.864 152.944ZM64.1319 159.507L71.7315 151.907L73.4874 153.663L65.9166 161.263L64.1319 159.507ZM67.6726 163.048L69.1119 161.608L72.7102 165.207L74.3798 163.537L71.0118 160.169L72.2496 158.931L75.6176 162.299L77.4024 160.514L73.7753 156.887L75.2146 155.448L80.5976 160.831L72.9981 168.431L67.6726 163.048ZM77.2872 172.691C76.51 171.914 76.0782 171.309 75.9055 170.791C75.56 169.784 75.8767 168.949 76.9994 167.826C78.5826 166.243 79.2159 166.099 80.6264 166.991L80.684 166.934C79.8492 165.984 79.9068 165.034 80.8279 164.113L82.3536 162.587L84.1384 164.372L82.9581 165.552C82.1809 166.3 82.1521 166.963 82.8718 167.625L84.6565 169.409L86.9306 167.135L88.6866 168.891L81.1158 176.491L77.2872 172.691ZM94.156 182.565L92.7167 188.437L90.6729 186.393L91.3925 183.831C91.4789 183.515 91.5652 183.313 91.8531 182.45L92.0258 181.989L91.997 181.96L91.5364 182.104C90.7304 182.363 90.5001 182.45 90.1547 182.565L87.5639 183.313L85.5489 181.269L91.4213 179.801L93.0045 173.583L95.0196 175.598L94.2136 178.391C94.1272 178.736 94.0408 178.966 93.7242 179.916L93.5515 180.435L93.5803 180.463L94.0984 180.291C95.0484 179.974 95.3362 179.888 95.6529 179.772L98.4451 178.995L100.518 181.068L94.156 182.565ZM113.414 193.878C113.184 194.252 112.579 194.943 111.888 195.634C110.823 196.699 110.248 197.131 109.614 197.39C108.607 197.793 107.657 197.678 106.649 196.958C106.246 196.699 105.728 196.209 104.663 195.173C102.936 193.446 102.504 192.87 102.274 191.978C102.101 191.201 102.274 190.366 102.821 189.531C103.08 189.128 103.655 188.466 104.346 187.775C105.555 186.595 106.217 186.105 106.966 185.904C107.916 185.645 108.693 185.818 109.614 186.48C110.017 186.768 110.42 187.113 111.255 187.948C113.241 189.934 113.788 190.654 113.961 191.575C114.105 192.266 113.903 193.129 113.414 193.878ZM119.43 187.977C118.653 188.754 118.049 189.186 117.53 189.358C116.523 189.704 115.688 189.387 114.565 188.264C112.982 186.681 112.838 186.048 113.731 184.637L113.673 184.58C112.723 185.415 111.773 185.357 110.852 184.407L109.326 182.881L111.111 181.097L112.291 182.306C113.04 183.083 113.702 183.112 114.364 182.392L116.149 180.607L113.875 178.333L115.631 176.577L123.23 184.177L119.43 187.977ZM124.756 182.651L123.317 181.212L126.771 177.757L125.015 176.001L121.791 179.226L120.352 177.786L123.576 174.562L120.639 171.626L122.395 169.87L129.995 177.47L124.756 182.651ZM133.68 173.727L123.662 168.575L125.447 166.79L127.26 167.74L130.254 164.746L129.304 162.961L131.118 161.148L136.299 171.137L133.68 173.727ZM145.914 161.522C145.137 162.299 144.532 162.731 144.014 162.904C143.006 163.249 142.172 162.932 141.049 161.81C139.466 160.227 139.322 159.593 140.214 158.183L140.157 158.125C139.207 158.96 138.257 158.902 137.335 157.981L135.81 156.484L137.595 154.7L138.775 155.88C139.523 156.657 140.185 156.686 140.847 155.966L142.632 154.181L140.358 151.907L142.114 150.151L149.714 157.751L145.914 161.522ZM156.334 150.957C156.104 151.332 155.5 152.022 154.809 152.713C153.744 153.778 153.168 154.21 152.535 154.469C151.527 154.872 150.577 154.728 149.57 154.038C149.167 153.75 148.648 153.289 147.583 152.253C145.856 150.526 145.424 149.95 145.194 149.057C145.021 148.28 145.194 147.445 145.741 146.611C146 146.208 146.576 145.546 147.267 144.855C148.447 143.674 149.138 143.185 149.886 142.984C150.836 142.725 151.642 142.897 152.563 143.559C152.966 143.847 153.369 144.193 154.175 145.027C156.162 147.014 156.709 147.733 156.881 148.654C157.025 149.345 156.824 150.209 156.334 150.957ZM164.711 142.609C164.481 142.984 163.876 143.674 163.186 144.365C162.12 145.43 161.545 145.862 160.911 146.121C159.904 146.524 158.954 146.38 157.946 145.689C157.543 145.43 157.025 144.941 155.96 143.905C154.233 142.178 153.801 141.602 153.571 140.709C153.398 139.932 153.571 139.097 154.118 138.263C154.377 137.86 154.953 137.198 155.644 136.507C156.824 135.298 157.515 134.837 158.263 134.636C159.213 134.376 160.019 134.549 160.94 135.211C161.343 135.499 161.746 135.873 162.552 136.679C164.539 138.666 165.085 139.385 165.258 140.306C165.402 140.997 165.201 141.861 164.711 142.609ZM171.015 136.392C168.972 138.435 167.244 138.407 165.114 136.305C162.955 134.117 162.351 133.427 162.092 132.678C161.631 131.354 162.034 130.231 163.473 128.763L167.302 124.935L174.902 132.534L171.015 136.392ZM176.283 131.124L174.758 129.598L176.917 127.439L170.843 121.365L172.599 119.609L178.673 125.683L180.716 123.639L182.213 125.136L176.283 131.124ZM188.345 119.062L183.307 114.025C182.357 113.075 181.983 113.132 180.659 114.456C179.421 115.694 179.392 116.04 180.429 117.047L185.38 121.998L183.624 123.754L178.701 118.832C178.5 118.63 177.953 117.997 177.723 117.738C177.176 117.105 177.032 116.241 177.262 115.464C177.492 114.715 177.895 114.168 179.162 112.902C180.342 111.722 180.947 111.232 181.638 111.002C182.818 110.541 183.595 110.858 185.006 112.269L190.043 117.306L188.345 119.062ZM196.75 110.541C196.52 110.916 195.916 111.606 195.225 112.297C194.16 113.362 193.584 113.794 192.951 114.053C191.943 114.456 190.993 114.341 189.986 113.622C189.583 113.334 189.064 112.873 187.999 111.837C186.272 110.11 185.84 109.534 185.61 108.642C185.437 107.864 185.61 107.029 186.157 106.195C186.416 105.792 186.992 105.13 187.683 104.439C188.892 103.258 189.554 102.769 190.302 102.568C191.252 102.309 192.029 102.481 192.951 103.143C193.354 103.431 193.757 103.805 194.591 104.611C196.578 106.598 197.125 107.317 197.297 108.239C197.441 108.958 197.24 109.822 196.75 110.541Z" fill="black"/>
  
</svg>
